<svg width="446" height="257" viewBox="0 0 446 257" fill="none" xmlns="http://www.w3.org/2000/svg">
<path d="M8.4375 7.25L15 24.6875L21.5469 7.25H26.6562V30H22.7188V22.5L23.1094 12.4688L16.3906 30H13.5625L6.85938 12.4844L7.25 22.5V30H3.3125V7.25H8.4375ZM30.2656 21.3906C30.2656 19.7344 30.5938 18.2448 31.25 16.9219C31.9062 15.5885 32.8281 14.5677 34.0156 13.8594C35.2031 13.1406 36.5677 12.7812 38.1094 12.7812C40.3906 12.7812 42.2396 13.5156 43.6562 14.9844C45.0833 16.4531 45.8542 18.401 45.9688 20.8281L45.9844 21.7188C45.9844 23.3854 45.6615 24.875 45.0156 26.1875C44.3802 27.5 43.4635 28.5156 42.2656 29.2344C41.0781 29.9531 39.7031 30.3125 38.1406 30.3125C35.7552 30.3125 33.8438 29.5208 32.4062 27.9375C30.9792 26.3438 30.2656 24.224 30.2656 21.5781V21.3906ZM34.0625 21.7188C34.0625 23.4583 34.4219 24.8229 35.1406 25.8125C35.8594 26.7917 36.8594 27.2812 38.1406 27.2812C39.4219 27.2812 40.4167 26.7812 41.125 25.7812C41.8438 24.7812 42.2031 23.3177 42.2031 21.3906C42.2031 19.6823 41.8333 18.3281 41.0938 17.3281C40.3646 16.3281 39.3698 15.8281 38.1094 15.8281C36.8698 15.8281 35.8854 16.3229 35.1562 17.3125C34.4271 18.2917 34.0625 19.7604 34.0625 21.7188ZM59.75 13.0938H63.5312V30H59.75V18.7188L53.125 30H49.3438V13.0938H53.125V24.375L59.75 13.0938ZM89.8594 30H86.0625V23.1719H79.4844V30H75.6875V13.0938H79.4844V20.1406H86.0625V13.0938H89.8594V30ZM104.016 30C103.849 29.6771 103.703 29.151 103.578 28.4219C102.37 29.6823 100.891 30.3125 99.1406 30.3125C97.4427 30.3125 96.0573 29.8281 94.9844 28.8594C93.9115 27.8906 93.375 26.6927 93.375 25.2656C93.375 23.4635 94.0417 22.0833 95.375 21.125C96.7188 20.1562 98.6354 19.6719 101.125 19.6719H103.453V18.5625C103.453 17.6875 103.208 16.9896 102.719 16.4688C102.229 15.9375 101.484 15.6719 100.484 15.6719C99.6198 15.6719 98.9115 15.8906 98.3594 16.3281C97.8073 16.7552 97.5312 17.3021 97.5312 17.9688H93.7344C93.7344 17.0417 94.0417 16.1771 94.6562 15.375C95.2708 14.5625 96.1042 13.9271 97.1562 13.4688C98.2188 13.0104 99.401 12.7812 100.703 12.7812C102.682 12.7812 104.26 13.2812 105.438 14.2812C106.615 15.2708 107.219 16.6667 107.25 18.4688V26.0938C107.25 27.6146 107.464 28.8281 107.891 29.7344V30H104.016ZM99.8438 27.2656C100.594 27.2656 101.297 27.0833 101.953 26.7188C102.62 26.3542 103.12 25.8646 103.453 25.25V22.0625H101.406C100 22.0625 98.9427 22.3073 98.2344 22.7969C97.526 23.2865 97.1719 23.9792 97.1719 24.875C97.1719 25.6042 97.4115 26.1875 97.8906 26.625C98.3802 27.0521 99.0312 27.2656 99.8438 27.2656ZM111.516 30V13.0938H118.375C120.688 13.0938 122.448 13.5 123.656 14.3125C124.865 15.1146 125.469 16.2708 125.469 17.7812C125.469 18.5625 125.224 19.2656 124.734 19.8906C124.255 20.5052 123.542 20.9792 122.594 21.3125C123.698 21.5417 124.573 22.0052 125.219 22.7031C125.865 23.401 126.188 24.224 126.188 25.1719C126.188 26.7448 125.604 27.9427 124.438 28.7656C123.281 29.5885 121.615 30 119.438 30H111.516ZM115.312 22.7969V27H119.469C121.417 27 122.391 26.3021 122.391 24.9062C122.391 23.5 121.401 22.7969 119.422 22.7969H115.312ZM115.312 20.0781H118.438C120.594 20.0781 121.672 19.4427 121.672 18.1719C121.672 16.8385 120.651 16.151 118.609 16.1094H115.312V20.0781ZM133.562 18.4688H137.281C138.667 18.4688 139.875 18.7083 140.906 19.1875C141.938 19.6667 142.719 20.3385 143.25 21.2031C143.792 22.0677 144.062 23.0729 144.062 24.2188C144.062 25.9583 143.448 27.3542 142.219 28.4062C140.99 29.4583 139.354 29.9896 137.312 30H129.766V13.0938H133.562V18.4688ZM150.672 30H146.875V13.0938H150.672V30ZM133.562 21.5156V26.9688H137.266C138.193 26.9688 138.922 26.7396 139.453 26.2812C139.995 25.8125 140.266 25.151 140.266 24.2969C140.266 23.4427 140 22.7708 139.469 22.2812C138.948 21.7812 138.24 21.526 137.344 21.5156H133.562ZM161.234 23.3125H159.312V30H155.516V13.0938H159.312V19.8438H160.984L165.656 13.0938H170.344L164.234 21.1875L170.859 30H165.922L161.234 23.3125ZM183.5 13.0938H187.281V30H183.5V18.7188L176.875 30H173.094V13.0938H176.875V24.375L183.5 13.0938Z" fill="black"/>
<rect x="1" y="115" width="445" height="4" fill="#C4C4C4"/>
<rect x="0.998047" y="115.244" width="349.357" height="4" transform="rotate(-0.0595261 0.998047 115.244)" fill="#34547A"/>
<path d="M9.60156 92.0312H4.83594L3.76562 95H2.21875L6.5625 83.625H7.875L12.2266 95H10.6875L9.60156 92.0312ZM5.28906 90.7969H9.15625L7.21875 85.4766L5.28906 90.7969ZM13.1797 90.7031C13.1797 89.4062 13.487 88.3646 14.1016 87.5781C14.7161 86.7865 15.5208 86.3906 16.5156 86.3906C17.5052 86.3906 18.2891 86.7292 18.8672 87.4062V83H20.3125V95H18.9844L18.9141 94.0938C18.3359 94.8021 17.5312 95.1562 16.5 95.1562C15.5208 95.1562 14.7214 94.7552 14.1016 93.9531C13.487 93.151 13.1797 92.1042 13.1797 90.8125V90.7031ZM14.625 90.8672C14.625 91.8255 14.8229 92.5755 15.2188 93.1172C15.6146 93.6589 16.1615 93.9297 16.8594 93.9297C17.776 93.9297 18.4453 93.5182 18.8672 92.6953V88.8125C18.4349 88.0156 17.7708 87.6172 16.875 87.6172C16.1667 87.6172 15.6146 87.8906 15.2188 88.4375C14.8229 88.9844 14.625 89.7943 14.625 90.8672ZM22.1797 90.6953C22.1797 89.8672 22.3411 89.1224 22.6641 88.4609C22.9922 87.7995 23.4453 87.2891 24.0234 86.9297C24.6068 86.5703 25.2708 86.3906 26.0156 86.3906C27.1667 86.3906 28.0964 86.7891 28.8047 87.5859C29.5182 88.3828 29.875 89.4427 29.875 90.7656V90.8672C29.875 91.6901 29.7161 92.4297 29.3984 93.0859C29.0859 93.737 28.6354 94.2448 28.0469 94.6094C27.4635 94.974 26.7917 95.1562 26.0312 95.1562C24.8854 95.1562 23.9557 94.7578 23.2422 93.9609C22.5339 93.1641 22.1797 92.1094 22.1797 90.7969V90.6953ZM23.6328 90.8672C23.6328 91.8047 23.849 92.5573 24.2812 93.125C24.7188 93.6927 25.3021 93.9766 26.0312 93.9766C26.7656 93.9766 27.349 93.6901 27.7812 93.1172C28.2135 92.5391 28.4297 91.7318 28.4297 90.6953C28.4297 89.7682 28.2083 89.0182 27.7656 88.4453C27.3281 87.8672 26.7448 87.5781 26.0156 87.5781C25.3021 87.5781 24.7266 87.862 24.2891 88.4297C23.8516 88.9974 23.6328 89.8099 23.6328 90.8672ZM38.8438 90.8672C38.8438 92.1589 38.5469 93.1979 37.9531 93.9844C37.3594 94.7656 36.5625 95.1562 35.5625 95.1562C34.4948 95.1562 33.6693 94.7786 33.0859 94.0234L33.0156 95H31.6875V83H33.1328V87.4766C33.7161 86.7526 34.5208 86.3906 35.5469 86.3906C36.5729 86.3906 37.3776 86.7786 37.9609 87.5547C38.5495 88.3307 38.8438 89.3932 38.8438 90.7422V90.8672ZM37.3984 90.7031C37.3984 89.7188 37.2083 88.9583 36.8281 88.4219C36.4479 87.8854 35.901 87.6172 35.1875 87.6172C34.2344 87.6172 33.5495 88.0599 33.1328 88.9453V92.6016C33.5755 93.487 34.2656 93.9297 35.2031 93.9297C35.8958 93.9297 36.4349 93.6615 36.8203 93.125C37.2057 92.5885 37.3984 91.7812 37.3984 90.7031ZM44.1797 95.1562C43.0339 95.1562 42.1016 94.7812 41.3828 94.0312C40.6641 93.276 40.3047 92.2682 40.3047 91.0078V90.7422C40.3047 89.9036 40.4635 89.1562 40.7812 88.5C41.1042 87.8385 41.5521 87.3229 42.125 86.9531C42.7031 86.5781 43.3281 86.3906 44 86.3906C45.099 86.3906 45.9531 86.7526 46.5625 87.4766C47.1719 88.2005 47.4766 89.237 47.4766 90.5859V91.1875H41.75C41.7708 92.0208 42.013 92.6953 42.4766 93.2109C42.9453 93.7214 43.5391 93.9766 44.2578 93.9766C44.7682 93.9766 45.2005 93.8724 45.5547 93.6641C45.9089 93.4557 46.2188 93.1797 46.4844 92.8359L47.3672 93.5234C46.6589 94.612 45.5964 95.1562 44.1797 95.1562ZM44 87.5781C43.4167 87.5781 42.9271 87.7917 42.5312 88.2188C42.1354 88.6406 41.8906 89.2344 41.7969 90H46.0312V89.8906C45.9896 89.1562 45.7917 88.5885 45.4375 88.1875C45.0833 87.7812 44.6042 87.5781 44 87.5781ZM54.8516 90.5469V95H53.3516V83.625H57.5469C58.7917 83.625 59.7656 83.9427 60.4688 84.5781C61.1771 85.2135 61.5312 86.0547 61.5312 87.1016C61.5312 88.2057 61.1849 89.0573 60.4922 89.6562C59.8047 90.25 58.8177 90.5469 57.5312 90.5469H54.8516ZM54.8516 89.3203H57.5469C58.349 89.3203 58.9635 89.1328 59.3906 88.7578C59.8177 88.3776 60.0312 87.8307 60.0312 87.1172C60.0312 86.4401 59.8177 85.8984 59.3906 85.4922C58.9635 85.0859 58.3776 84.875 57.6328 84.8594H54.8516V89.3203ZM64.6641 87.5703C65.3047 86.7839 66.138 86.3906 67.1641 86.3906C68.9505 86.3906 69.8516 87.3984 69.8672 89.4141V95H68.4219V89.4062C68.4167 88.7969 68.276 88.3464 68 88.0547C67.7292 87.763 67.3047 87.6172 66.7266 87.6172C66.2578 87.6172 65.8464 87.7422 65.4922 87.9922C65.138 88.2422 64.862 88.5703 64.6641 88.9766V95H63.2188V83H64.6641V87.5703ZM71.6484 90.6953C71.6484 89.8672 71.8099 89.1224 72.1328 88.4609C72.4609 87.7995 72.9141 87.2891 73.4922 86.9297C74.0755 86.5703 74.7396 86.3906 75.4844 86.3906C76.6354 86.3906 77.5651 86.7891 78.2734 87.5859C78.987 88.3828 79.3438 89.4427 79.3438 90.7656V90.8672C79.3438 91.6901 79.1849 92.4297 78.8672 93.0859C78.5547 93.737 78.1042 94.2448 77.5156 94.6094C76.9323 94.974 76.2604 95.1562 75.5 95.1562C74.3542 95.1562 73.4245 94.7578 72.7109 93.9609C72.0026 93.1641 71.6484 92.1094 71.6484 90.7969V90.6953ZM73.1016 90.8672C73.1016 91.8047 73.3177 92.5573 73.75 93.125C74.1875 93.6927 74.7708 93.9766 75.5 93.9766C76.2344 93.9766 76.8177 93.6901 77.25 93.1172C77.6823 92.5391 77.8984 91.7318 77.8984 90.6953C77.8984 89.7682 77.6771 89.0182 77.2344 88.4453C76.7969 87.8672 76.2135 87.5781 75.4844 87.5781C74.7708 87.5781 74.1953 87.862 73.7578 88.4297C73.3203 88.9974 73.1016 89.8099 73.1016 90.8672ZM83.1172 84.5V86.5469H84.6953V87.6641H83.1172V92.9062C83.1172 93.2448 83.1875 93.5 83.3281 93.6719C83.4688 93.8385 83.7083 93.9219 84.0469 93.9219C84.2135 93.9219 84.4427 93.8906 84.7344 93.8281V95C84.3542 95.1042 83.9844 95.1562 83.625 95.1562C82.9792 95.1562 82.4922 94.9609 82.1641 94.5703C81.8359 94.1797 81.6719 93.625 81.6719 92.9062V87.6641H80.1328V86.5469H81.6719V84.5H83.1172ZM85.8516 90.6953C85.8516 89.8672 86.013 89.1224 86.3359 88.4609C86.6641 87.7995 87.1172 87.2891 87.6953 86.9297C88.2786 86.5703 88.9427 86.3906 89.6875 86.3906C90.8385 86.3906 91.7682 86.7891 92.4766 87.5859C93.1901 88.3828 93.5469 89.4427 93.5469 90.7656V90.8672C93.5469 91.6901 93.388 92.4297 93.0703 93.0859C92.7578 93.737 92.3073 94.2448 91.7188 94.6094C91.1354 94.974 90.4635 95.1562 89.7031 95.1562C88.5573 95.1562 87.6276 94.7578 86.9141 93.9609C86.2057 93.1641 85.8516 92.1094 85.8516 90.7969V90.6953ZM87.3047 90.8672C87.3047 91.8047 87.5208 92.5573 87.9531 93.125C88.3906 93.6927 88.974 93.9766 89.7031 93.9766C90.4375 93.9766 91.0208 93.6901 91.4531 93.1172C91.8854 92.5391 92.1016 91.7318 92.1016 90.6953C92.1016 89.7682 91.8802 89.0182 91.4375 88.4453C91 87.8672 90.4167 87.5781 89.6875 87.5781C88.974 87.5781 88.3984 87.862 87.9609 88.4297C87.5234 88.9974 87.3047 89.8099 87.3047 90.8672ZM100.281 92.7578C100.281 92.3672 100.133 92.0651 99.8359 91.8516C99.5443 91.6328 99.0312 91.4453 98.2969 91.2891C97.5677 91.1328 96.987 90.9453 96.5547 90.7266C96.1276 90.5078 95.8099 90.2474 95.6016 89.9453C95.3984 89.6432 95.2969 89.2839 95.2969 88.8672C95.2969 88.1745 95.5885 87.5885 96.1719 87.1094C96.7604 86.6302 97.5104 86.3906 98.4219 86.3906C99.3802 86.3906 100.156 86.638 100.75 87.1328C101.349 87.6276 101.648 88.2604 101.648 89.0312H100.195C100.195 88.6354 100.026 88.2943 99.6875 88.0078C99.3542 87.7214 98.9323 87.5781 98.4219 87.5781C97.8958 87.5781 97.4844 87.6927 97.1875 87.9219C96.8906 88.151 96.7422 88.4505 96.7422 88.8203C96.7422 89.1693 96.8802 89.4323 97.1562 89.6094C97.4323 89.7865 97.9297 89.9557 98.6484 90.1172C99.3724 90.2786 99.9583 90.4714 100.406 90.6953C100.854 90.9193 101.185 91.1901 101.398 91.5078C101.617 91.8203 101.727 92.2031 101.727 92.6562C101.727 93.4115 101.424 94.0182 100.82 94.4766C100.216 94.9297 99.4323 95.1562 98.4688 95.1562C97.7917 95.1562 97.1927 95.0365 96.6719 94.7969C96.151 94.5573 95.7422 94.224 95.4453 93.7969C95.1536 93.3646 95.0078 92.8984 95.0078 92.3984H96.4531C96.4792 92.8828 96.6719 93.2682 97.0312 93.5547C97.3958 93.8359 97.875 93.9766 98.4688 93.9766C99.0156 93.9766 99.4531 93.8672 99.7812 93.6484C100.115 93.4245 100.281 93.1276 100.281 92.7578ZM105.055 87.5703C105.695 86.7839 106.529 86.3906 107.555 86.3906C109.341 86.3906 110.242 87.3984 110.258 89.4141V95H108.812V89.4062C108.807 88.7969 108.667 88.3464 108.391 88.0547C108.12 87.763 107.695 87.6172 107.117 87.6172C106.648 87.6172 106.237 87.7422 105.883 87.9922C105.529 88.2422 105.253 88.5703 105.055 88.9766V95H103.609V83H105.055V87.5703ZM112.039 90.6953C112.039 89.8672 112.201 89.1224 112.523 88.4609C112.852 87.7995 113.305 87.2891 113.883 86.9297C114.466 86.5703 115.13 86.3906 115.875 86.3906C117.026 86.3906 117.956 86.7891 118.664 87.5859C119.378 88.3828 119.734 89.4427 119.734 90.7656V90.8672C119.734 91.6901 119.576 92.4297 119.258 93.0859C118.945 93.737 118.495 94.2448 117.906 94.6094C117.323 94.974 116.651 95.1562 115.891 95.1562C114.745 95.1562 113.815 94.7578 113.102 93.9609C112.393 93.1641 112.039 92.1094 112.039 90.7969V90.6953ZM113.492 90.8672C113.492 91.8047 113.708 92.5573 114.141 93.125C114.578 93.6927 115.161 93.9766 115.891 93.9766C116.625 93.9766 117.208 93.6901 117.641 93.1172C118.073 92.5391 118.289 91.7318 118.289 90.6953C118.289 89.7682 118.068 89.0182 117.625 88.4453C117.188 87.8672 116.604 87.5781 115.875 87.5781C115.161 87.5781 114.586 87.862 114.148 88.4297C113.711 88.9974 113.492 89.8099 113.492 90.8672ZM128.688 90.8672C128.688 92.1536 128.393 93.1901 127.805 93.9766C127.216 94.763 126.419 95.1562 125.414 95.1562C124.388 95.1562 123.581 94.8307 122.992 94.1797V98.25H121.547V86.5469H122.867L122.938 87.4844C123.526 86.7552 124.344 86.3906 125.391 86.3906C126.406 86.3906 127.208 86.7734 127.797 87.5391C128.391 88.3047 128.688 89.3698 128.688 90.7344V90.8672ZM127.242 90.7031C127.242 89.75 127.039 88.9974 126.633 88.4453C126.227 87.8932 125.669 87.6172 124.961 87.6172C124.086 87.6172 123.43 88.0052 122.992 88.7812V92.8203C123.424 93.5911 124.086 93.9766 124.977 93.9766C125.669 93.9766 126.219 93.7031 126.625 93.1562C127.036 92.6042 127.242 91.7865 127.242 90.7031Z" fill="#727272"/>
<rect x="1" y="184" width="445" height="4" fill="#C4C4C4"/>
<rect x="1" y="184" width="350" height="4" fill="#34547A"/>
<path d="M9.60156 161.031H4.83594L3.76562 164H2.21875L6.5625 152.625H7.875L12.2266 164H10.6875L9.60156 161.031ZM5.28906 159.797H9.15625L7.21875 154.477L5.28906 159.797ZM13.1797 159.703C13.1797 158.406 13.487 157.365 14.1016 156.578C14.7161 155.786 15.5208 155.391 16.5156 155.391C17.5052 155.391 18.2891 155.729 18.8672 156.406V152H20.3125V164H18.9844L18.9141 163.094C18.3359 163.802 17.5312 164.156 16.5 164.156C15.5208 164.156 14.7214 163.755 14.1016 162.953C13.487 162.151 13.1797 161.104 13.1797 159.812V159.703ZM14.625 159.867C14.625 160.826 14.8229 161.576 15.2188 162.117C15.6146 162.659 16.1615 162.93 16.8594 162.93C17.776 162.93 18.4453 162.518 18.8672 161.695V157.812C18.4349 157.016 17.7708 156.617 16.875 156.617C16.1667 156.617 15.6146 156.891 15.2188 157.438C14.8229 157.984 14.625 158.794 14.625 159.867ZM22.1797 159.695C22.1797 158.867 22.3411 158.122 22.6641 157.461C22.9922 156.799 23.4453 156.289 24.0234 155.93C24.6068 155.57 25.2708 155.391 26.0156 155.391C27.1667 155.391 28.0964 155.789 28.8047 156.586C29.5182 157.383 29.875 158.443 29.875 159.766V159.867C29.875 160.69 29.7161 161.43 29.3984 162.086C29.0859 162.737 28.6354 163.245 28.0469 163.609C27.4635 163.974 26.7917 164.156 26.0312 164.156C24.8854 164.156 23.9557 163.758 23.2422 162.961C22.5339 162.164 22.1797 161.109 22.1797 159.797V159.695ZM23.6328 159.867C23.6328 160.805 23.849 161.557 24.2812 162.125C24.7188 162.693 25.3021 162.977 26.0312 162.977C26.7656 162.977 27.349 162.69 27.7812 162.117C28.2135 161.539 28.4297 160.732 28.4297 159.695C28.4297 158.768 28.2083 158.018 27.7656 157.445C27.3281 156.867 26.7448 156.578 26.0156 156.578C25.3021 156.578 24.7266 156.862 24.2891 157.43C23.8516 157.997 23.6328 158.81 23.6328 159.867ZM38.8438 159.867C38.8438 161.159 38.5469 162.198 37.9531 162.984C37.3594 163.766 36.5625 164.156 35.5625 164.156C34.4948 164.156 33.6693 163.779 33.0859 163.023L33.0156 164H31.6875V152H33.1328V156.477C33.7161 155.753 34.5208 155.391 35.5469 155.391C36.5729 155.391 37.3776 155.779 37.9609 156.555C38.5495 157.331 38.8438 158.393 38.8438 159.742V159.867ZM37.3984 159.703C37.3984 158.719 37.2083 157.958 36.8281 157.422C36.4479 156.885 35.901 156.617 35.1875 156.617C34.2344 156.617 33.5495 157.06 33.1328 157.945V161.602C33.5755 162.487 34.2656 162.93 35.2031 162.93C35.8958 162.93 36.4349 162.661 36.8203 162.125C37.2057 161.589 37.3984 160.781 37.3984 159.703ZM44.1797 164.156C43.0339 164.156 42.1016 163.781 41.3828 163.031C40.6641 162.276 40.3047 161.268 40.3047 160.008V159.742C40.3047 158.904 40.4635 158.156 40.7812 157.5C41.1042 156.839 41.5521 156.323 42.125 155.953C42.7031 155.578 43.3281 155.391 44 155.391C45.099 155.391 45.9531 155.753 46.5625 156.477C47.1719 157.201 47.4766 158.237 47.4766 159.586V160.188H41.75C41.7708 161.021 42.013 161.695 42.4766 162.211C42.9453 162.721 43.5391 162.977 44.2578 162.977C44.7682 162.977 45.2005 162.872 45.5547 162.664C45.9089 162.456 46.2188 162.18 46.4844 161.836L47.3672 162.523C46.6589 163.612 45.5964 164.156 44.1797 164.156ZM44 156.578C43.4167 156.578 42.9271 156.792 42.5312 157.219C42.1354 157.641 41.8906 158.234 41.7969 159H46.0312V158.891C45.9896 158.156 45.7917 157.589 45.4375 157.188C45.0833 156.781 44.6042 156.578 44 156.578ZM54.8516 159.547V164H53.3516V152.625H57.5469C58.7917 152.625 59.7656 152.943 60.4688 153.578C61.1771 154.214 61.5312 155.055 61.5312 156.102C61.5312 157.206 61.1849 158.057 60.4922 158.656C59.8047 159.25 58.8177 159.547 57.5312 159.547H54.8516ZM54.8516 158.32H57.5469C58.349 158.32 58.9635 158.133 59.3906 157.758C59.8177 157.378 60.0312 156.831 60.0312 156.117C60.0312 155.44 59.8177 154.898 59.3906 154.492C58.9635 154.086 58.3776 153.875 57.6328 153.859H54.8516V158.32ZM64.6641 156.57C65.3047 155.784 66.138 155.391 67.1641 155.391C68.9505 155.391 69.8516 156.398 69.8672 158.414V164H68.4219V158.406C68.4167 157.797 68.276 157.346 68 157.055C67.7292 156.763 67.3047 156.617 66.7266 156.617C66.2578 156.617 65.8464 156.742 65.4922 156.992C65.138 157.242 64.862 157.57 64.6641 157.977V164H63.2188V152H64.6641V156.57ZM71.6484 159.695C71.6484 158.867 71.8099 158.122 72.1328 157.461C72.4609 156.799 72.9141 156.289 73.4922 155.93C74.0755 155.57 74.7396 155.391 75.4844 155.391C76.6354 155.391 77.5651 155.789 78.2734 156.586C78.987 157.383 79.3438 158.443 79.3438 159.766V159.867C79.3438 160.69 79.1849 161.43 78.8672 162.086C78.5547 162.737 78.1042 163.245 77.5156 163.609C76.9323 163.974 76.2604 164.156 75.5 164.156C74.3542 164.156 73.4245 163.758 72.7109 162.961C72.0026 162.164 71.6484 161.109 71.6484 159.797V159.695ZM73.1016 159.867C73.1016 160.805 73.3177 161.557 73.75 162.125C74.1875 162.693 74.7708 162.977 75.5 162.977C76.2344 162.977 76.8177 162.69 77.25 162.117C77.6823 161.539 77.8984 160.732 77.8984 159.695C77.8984 158.768 77.6771 158.018 77.2344 157.445C76.7969 156.867 76.2135 156.578 75.4844 156.578C74.7708 156.578 74.1953 156.862 73.7578 157.43C73.3203 157.997 73.1016 158.81 73.1016 159.867ZM83.1172 153.5V155.547H84.6953V156.664H83.1172V161.906C83.1172 162.245 83.1875 162.5 83.3281 162.672C83.4688 162.839 83.7083 162.922 84.0469 162.922C84.2135 162.922 84.4427 162.891 84.7344 162.828V164C84.3542 164.104 83.9844 164.156 83.625 164.156C82.9792 164.156 82.4922 163.961 82.1641 163.57C81.8359 163.18 81.6719 162.625 81.6719 161.906V156.664H80.1328V155.547H81.6719V153.5H83.1172ZM85.8516 159.695C85.8516 158.867 86.013 158.122 86.3359 157.461C86.6641 156.799 87.1172 156.289 87.6953 155.93C88.2786 155.57 88.9427 155.391 89.6875 155.391C90.8385 155.391 91.7682 155.789 92.4766 156.586C93.1901 157.383 93.5469 158.443 93.5469 159.766V159.867C93.5469 160.69 93.388 161.43 93.0703 162.086C92.7578 162.737 92.3073 163.245 91.7188 163.609C91.1354 163.974 90.4635 164.156 89.7031 164.156C88.5573 164.156 87.6276 163.758 86.9141 162.961C86.2057 162.164 85.8516 161.109 85.8516 159.797V159.695ZM87.3047 159.867C87.3047 160.805 87.5208 161.557 87.9531 162.125C88.3906 162.693 88.974 162.977 89.7031 162.977C90.4375 162.977 91.0208 162.69 91.4531 162.117C91.8854 161.539 92.1016 160.732 92.1016 159.695C92.1016 158.768 91.8802 158.018 91.4375 157.445C91 156.867 90.4167 156.578 89.6875 156.578C88.974 156.578 88.3984 156.862 87.9609 157.43C87.5234 157.997 87.3047 158.81 87.3047 159.867ZM100.281 161.758C100.281 161.367 100.133 161.065 99.8359 160.852C99.5443 160.633 99.0312 160.445 98.2969 160.289C97.5677 160.133 96.987 159.945 96.5547 159.727C96.1276 159.508 95.8099 159.247 95.6016 158.945C95.3984 158.643 95.2969 158.284 95.2969 157.867C95.2969 157.174 95.5885 156.589 96.1719 156.109C96.7604 155.63 97.5104 155.391 98.4219 155.391C99.3802 155.391 100.156 155.638 100.75 156.133C101.349 156.628 101.648 157.26 101.648 158.031H100.195C100.195 157.635 100.026 157.294 99.6875 157.008C99.3542 156.721 98.9323 156.578 98.4219 156.578C97.8958 156.578 97.4844 156.693 97.1875 156.922C96.8906 157.151 96.7422 157.451 96.7422 157.82C96.7422 158.169 96.8802 158.432 97.1562 158.609C97.4323 158.786 97.9297 158.956 98.6484 159.117C99.3724 159.279 99.9583 159.471 100.406 159.695C100.854 159.919 101.185 160.19 101.398 160.508C101.617 160.82 101.727 161.203 101.727 161.656C101.727 162.411 101.424 163.018 100.82 163.477C100.216 163.93 99.4323 164.156 98.4688 164.156C97.7917 164.156 97.1927 164.036 96.6719 163.797C96.151 163.557 95.7422 163.224 95.4453 162.797C95.1536 162.365 95.0078 161.898 95.0078 161.398H96.4531C96.4792 161.883 96.6719 162.268 97.0312 162.555C97.3958 162.836 97.875 162.977 98.4688 162.977C99.0156 162.977 99.4531 162.867 99.7812 162.648C100.115 162.424 100.281 162.128 100.281 161.758ZM105.055 156.57C105.695 155.784 106.529 155.391 107.555 155.391C109.341 155.391 110.242 156.398 110.258 158.414V164H108.812V158.406C108.807 157.797 108.667 157.346 108.391 157.055C108.12 156.763 107.695 156.617 107.117 156.617C106.648 156.617 106.237 156.742 105.883 156.992C105.529 157.242 105.253 157.57 105.055 157.977V164H103.609V152H105.055V156.57ZM112.039 159.695C112.039 158.867 112.201 158.122 112.523 157.461C112.852 156.799 113.305 156.289 113.883 155.93C114.466 155.57 115.13 155.391 115.875 155.391C117.026 155.391 117.956 155.789 118.664 156.586C119.378 157.383 119.734 158.443 119.734 159.766V159.867C119.734 160.69 119.576 161.43 119.258 162.086C118.945 162.737 118.495 163.245 117.906 163.609C117.323 163.974 116.651 164.156 115.891 164.156C114.745 164.156 113.815 163.758 113.102 162.961C112.393 162.164 112.039 161.109 112.039 159.797V159.695ZM113.492 159.867C113.492 160.805 113.708 161.557 114.141 162.125C114.578 162.693 115.161 162.977 115.891 162.977C116.625 162.977 117.208 162.69 117.641 162.117C118.073 161.539 118.289 160.732 118.289 159.695C118.289 158.768 118.068 158.018 117.625 157.445C117.188 156.867 116.604 156.578 115.875 156.578C115.161 156.578 114.586 156.862 114.148 157.43C113.711 157.997 113.492 158.81 113.492 159.867ZM128.688 159.867C128.688 161.154 128.393 162.19 127.805 162.977C127.216 163.763 126.419 164.156 125.414 164.156C124.388 164.156 123.581 163.831 122.992 163.18V167.25H121.547V155.547H122.867L122.938 156.484C123.526 155.755 124.344 155.391 125.391 155.391C126.406 155.391 127.208 155.773 127.797 156.539C128.391 157.305 128.688 158.37 128.688 159.734V159.867ZM127.242 159.703C127.242 158.75 127.039 157.997 126.633 157.445C126.227 156.893 125.669 156.617 124.961 156.617C124.086 156.617 123.43 157.005 122.992 157.781V161.82C123.424 162.591 124.086 162.977 124.977 162.977C125.669 162.977 126.219 162.703 126.625 162.156C127.036 161.604 127.242 160.786 127.242 159.703Z" fill="#727272"/>
<rect x="1" y="253" width="445" height="4" fill="#C4C4C4"/>
<rect x="1" y="253" width="350" height="4" fill="#34547A"/>
<path d="M9.60156 230.031H4.83594L3.76562 233H2.21875L6.5625 221.625H7.875L12.2266 233H10.6875L9.60156 230.031ZM5.28906 228.797H9.15625L7.21875 223.477L5.28906 228.797ZM13.1797 228.703C13.1797 227.406 13.487 226.365 14.1016 225.578C14.7161 224.786 15.5208 224.391 16.5156 224.391C17.5052 224.391 18.2891 224.729 18.8672 225.406V221H20.3125V233H18.9844L18.9141 232.094C18.3359 232.802 17.5312 233.156 16.5 233.156C15.5208 233.156 14.7214 232.755 14.1016 231.953C13.487 231.151 13.1797 230.104 13.1797 228.812V228.703ZM14.625 228.867C14.625 229.826 14.8229 230.576 15.2188 231.117C15.6146 231.659 16.1615 231.93 16.8594 231.93C17.776 231.93 18.4453 231.518 18.8672 230.695V226.812C18.4349 226.016 17.7708 225.617 16.875 225.617C16.1667 225.617 15.6146 225.891 15.2188 226.438C14.8229 226.984 14.625 227.794 14.625 228.867ZM22.1797 228.695C22.1797 227.867 22.3411 227.122 22.6641 226.461C22.9922 225.799 23.4453 225.289 24.0234 224.93C24.6068 224.57 25.2708 224.391 26.0156 224.391C27.1667 224.391 28.0964 224.789 28.8047 225.586C29.5182 226.383 29.875 227.443 29.875 228.766V228.867C29.875 229.69 29.7161 230.43 29.3984 231.086C29.0859 231.737 28.6354 232.245 28.0469 232.609C27.4635 232.974 26.7917 233.156 26.0312 233.156C24.8854 233.156 23.9557 232.758 23.2422 231.961C22.5339 231.164 22.1797 230.109 22.1797 228.797V228.695ZM23.6328 228.867C23.6328 229.805 23.849 230.557 24.2812 231.125C24.7188 231.693 25.3021 231.977 26.0312 231.977C26.7656 231.977 27.349 231.69 27.7812 231.117C28.2135 230.539 28.4297 229.732 28.4297 228.695C28.4297 227.768 28.2083 227.018 27.7656 226.445C27.3281 225.867 26.7448 225.578 26.0156 225.578C25.3021 225.578 24.7266 225.862 24.2891 226.43C23.8516 226.997 23.6328 227.81 23.6328 228.867ZM38.8438 228.867C38.8438 230.159 38.5469 231.198 37.9531 231.984C37.3594 232.766 36.5625 233.156 35.5625 233.156C34.4948 233.156 33.6693 232.779 33.0859 232.023L33.0156 233H31.6875V221H33.1328V225.477C33.7161 224.753 34.5208 224.391 35.5469 224.391C36.5729 224.391 37.3776 224.779 37.9609 225.555C38.5495 226.331 38.8438 227.393 38.8438 228.742V228.867ZM37.3984 228.703C37.3984 227.719 37.2083 226.958 36.8281 226.422C36.4479 225.885 35.901 225.617 35.1875 225.617C34.2344 225.617 33.5495 226.06 33.1328 226.945V230.602C33.5755 231.487 34.2656 231.93 35.2031 231.93C35.8958 231.93 36.4349 231.661 36.8203 231.125C37.2057 230.589 37.3984 229.781 37.3984 228.703ZM44.1797 233.156C43.0339 233.156 42.1016 232.781 41.3828 232.031C40.6641 231.276 40.3047 230.268 40.3047 229.008V228.742C40.3047 227.904 40.4635 227.156 40.7812 226.5C41.1042 225.839 41.5521 225.323 42.125 224.953C42.7031 224.578 43.3281 224.391 44 224.391C45.099 224.391 45.9531 224.753 46.5625 225.477C47.1719 226.201 47.4766 227.237 47.4766 228.586V229.188H41.75C41.7708 230.021 42.013 230.695 42.4766 231.211C42.9453 231.721 43.5391 231.977 44.2578 231.977C44.7682 231.977 45.2005 231.872 45.5547 231.664C45.9089 231.456 46.2188 231.18 46.4844 230.836L47.3672 231.523C46.6589 232.612 45.5964 233.156 44.1797 233.156ZM44 225.578C43.4167 225.578 42.9271 225.792 42.5312 226.219C42.1354 226.641 41.8906 227.234 41.7969 228H46.0312V227.891C45.9896 227.156 45.7917 226.589 45.4375 226.188C45.0833 225.781 44.6042 225.578 44 225.578ZM54.8516 228.547V233H53.3516V221.625H57.5469C58.7917 221.625 59.7656 221.943 60.4688 222.578C61.1771 223.214 61.5312 224.055 61.5312 225.102C61.5312 226.206 61.1849 227.057 60.4922 227.656C59.8047 228.25 58.8177 228.547 57.5312 228.547H54.8516ZM54.8516 227.32H57.5469C58.349 227.32 58.9635 227.133 59.3906 226.758C59.8177 226.378 60.0312 225.831 60.0312 225.117C60.0312 224.44 59.8177 223.898 59.3906 223.492C58.9635 223.086 58.3776 222.875 57.6328 222.859H54.8516V227.32ZM64.6641 225.57C65.3047 224.784 66.138 224.391 67.1641 224.391C68.9505 224.391 69.8516 225.398 69.8672 227.414V233H68.4219V227.406C68.4167 226.797 68.276 226.346 68 226.055C67.7292 225.763 67.3047 225.617 66.7266 225.617C66.2578 225.617 65.8464 225.742 65.4922 225.992C65.138 226.242 64.862 226.57 64.6641 226.977V233H63.2188V221H64.6641V225.57ZM71.6484 228.695C71.6484 227.867 71.8099 227.122 72.1328 226.461C72.4609 225.799 72.9141 225.289 73.4922 224.93C74.0755 224.57 74.7396 224.391 75.4844 224.391C76.6354 224.391 77.5651 224.789 78.2734 225.586C78.987 226.383 79.3438 227.443 79.3438 228.766V228.867C79.3438 229.69 79.1849 230.43 78.8672 231.086C78.5547 231.737 78.1042 232.245 77.5156 232.609C76.9323 232.974 76.2604 233.156 75.5 233.156C74.3542 233.156 73.4245 232.758 72.7109 231.961C72.0026 231.164 71.6484 230.109 71.6484 228.797V228.695ZM73.1016 228.867C73.1016 229.805 73.3177 230.557 73.75 231.125C74.1875 231.693 74.7708 231.977 75.5 231.977C76.2344 231.977 76.8177 231.69 77.25 231.117C77.6823 230.539 77.8984 229.732 77.8984 228.695C77.8984 227.768 77.6771 227.018 77.2344 226.445C76.7969 225.867 76.2135 225.578 75.4844 225.578C74.7708 225.578 74.1953 225.862 73.7578 226.43C73.3203 226.997 73.1016 227.81 73.1016 228.867ZM83.1172 222.5V224.547H84.6953V225.664H83.1172V230.906C83.1172 231.245 83.1875 231.5 83.3281 231.672C83.4688 231.839 83.7083 231.922 84.0469 231.922C84.2135 231.922 84.4427 231.891 84.7344 231.828V233C84.3542 233.104 83.9844 233.156 83.625 233.156C82.9792 233.156 82.4922 232.961 82.1641 232.57C81.8359 232.18 81.6719 231.625 81.6719 230.906V225.664H80.1328V224.547H81.6719V222.5H83.1172ZM85.8516 228.695C85.8516 227.867 86.013 227.122 86.3359 226.461C86.6641 225.799 87.1172 225.289 87.6953 224.93C88.2786 224.57 88.9427 224.391 89.6875 224.391C90.8385 224.391 91.7682 224.789 92.4766 225.586C93.1901 226.383 93.5469 227.443 93.5469 228.766V228.867C93.5469 229.69 93.388 230.43 93.0703 231.086C92.7578 231.737 92.3073 232.245 91.7188 232.609C91.1354 232.974 90.4635 233.156 89.7031 233.156C88.5573 233.156 87.6276 232.758 86.9141 231.961C86.2057 231.164 85.8516 230.109 85.8516 228.797V228.695ZM87.3047 228.867C87.3047 229.805 87.5208 230.557 87.9531 231.125C88.3906 231.693 88.974 231.977 89.7031 231.977C90.4375 231.977 91.0208 231.69 91.4531 231.117C91.8854 230.539 92.1016 229.732 92.1016 228.695C92.1016 227.768 91.8802 227.018 91.4375 226.445C91 225.867 90.4167 225.578 89.6875 225.578C88.974 225.578 88.3984 225.862 87.9609 226.43C87.5234 226.997 87.3047 227.81 87.3047 228.867ZM100.281 230.758C100.281 230.367 100.133 230.065 99.8359 229.852C99.5443 229.633 99.0312 229.445 98.2969 229.289C97.5677 229.133 96.987 228.945 96.5547 228.727C96.1276 228.508 95.8099 228.247 95.6016 227.945C95.3984 227.643 95.2969 227.284 95.2969 226.867C95.2969 226.174 95.5885 225.589 96.1719 225.109C96.7604 224.63 97.5104 224.391 98.4219 224.391C99.3802 224.391 100.156 224.638 100.75 225.133C101.349 225.628 101.648 226.26 101.648 227.031H100.195C100.195 226.635 100.026 226.294 99.6875 226.008C99.3542 225.721 98.9323 225.578 98.4219 225.578C97.8958 225.578 97.4844 225.693 97.1875 225.922C96.8906 226.151 96.7422 226.451 96.7422 226.82C96.7422 227.169 96.8802 227.432 97.1562 227.609C97.4323 227.786 97.9297 227.956 98.6484 228.117C99.3724 228.279 99.9583 228.471 100.406 228.695C100.854 228.919 101.185 229.19 101.398 229.508C101.617 229.82 101.727 230.203 101.727 230.656C101.727 231.411 101.424 232.018 100.82 232.477C100.216 232.93 99.4323 233.156 98.4688 233.156C97.7917 233.156 97.1927 233.036 96.6719 232.797C96.151 232.557 95.7422 232.224 95.4453 231.797C95.1536 231.365 95.0078 230.898 95.0078 230.398H96.4531C96.4792 230.883 96.6719 231.268 97.0312 231.555C97.3958 231.836 97.875 231.977 98.4688 231.977C99.0156 231.977 99.4531 231.867 99.7812 231.648C100.115 231.424 100.281 231.128 100.281 230.758ZM105.055 225.57C105.695 224.784 106.529 224.391 107.555 224.391C109.341 224.391 110.242 225.398 110.258 227.414V233H108.812V227.406C108.807 226.797 108.667 226.346 108.391 226.055C108.12 225.763 107.695 225.617 107.117 225.617C106.648 225.617 106.237 225.742 105.883 225.992C105.529 226.242 105.253 226.57 105.055 226.977V233H103.609V221H105.055V225.57ZM112.039 228.695C112.039 227.867 112.201 227.122 112.523 226.461C112.852 225.799 113.305 225.289 113.883 224.93C114.466 224.57 115.13 224.391 115.875 224.391C117.026 224.391 117.956 224.789 118.664 225.586C119.378 226.383 119.734 227.443 119.734 228.766V228.867C119.734 229.69 119.576 230.43 119.258 231.086C118.945 231.737 118.495 232.245 117.906 232.609C117.323 232.974 116.651 233.156 115.891 233.156C114.745 233.156 113.815 232.758 113.102 231.961C112.393 231.164 112.039 230.109 112.039 228.797V228.695ZM113.492 228.867C113.492 229.805 113.708 230.557 114.141 231.125C114.578 231.693 115.161 231.977 115.891 231.977C116.625 231.977 117.208 231.69 117.641 231.117C118.073 230.539 118.289 229.732 118.289 228.695C118.289 227.768 118.068 227.018 117.625 226.445C117.188 225.867 116.604 225.578 115.875 225.578C115.161 225.578 114.586 225.862 114.148 226.43C113.711 226.997 113.492 227.81 113.492 228.867ZM128.688 228.867C128.688 230.154 128.393 231.19 127.805 231.977C127.216 232.763 126.419 233.156 125.414 233.156C124.388 233.156 123.581 232.831 122.992 232.18V236.25H121.547V224.547H122.867L122.938 225.484C123.526 224.755 124.344 224.391 125.391 224.391C126.406 224.391 127.208 224.773 127.797 225.539C128.391 226.305 128.688 227.37 128.688 228.734V228.867ZM127.242 228.703C127.242 227.75 127.039 226.997 126.633 226.445C126.227 225.893 125.669 225.617 124.961 225.617C124.086 225.617 123.43 226.005 122.992 226.781V230.82C123.424 231.591 124.086 231.977 124.977 231.977C125.669 231.977 126.219 231.703 126.625 231.156C127.036 230.604 127.242 229.786 127.242 228.703Z" fill="#727272"/>
</svg>
